<?xml version="1.0" encoding="UTF-8" standalone="no"?>
<svg
   xmlns:dc="http://purl.org/dc/elements/1.1/"
   xmlns:cc="http://creativecommons.org/ns#"
   xmlns:rdf="http://www.w3.org/1999/02/22-rdf-syntax-ns#"
   xmlns:svg="http://www.w3.org/2000/svg"
   xmlns="http://www.w3.org/2000/svg"
   xmlns:sodipodi="http://sodipodi.sourceforge.net/DTD/sodipodi-0.dtd"
   xmlns:inkscape="http://www.inkscape.org/namespaces/inkscape"
   viewBox="0.0 0.0 348.0 348.0"
   fill="none"
   id="svg2"
   version="1.1"
   inkscape:version="0.48.2 r9819"
   width="100%"
   height="100%"
   sodipodi:docname="Deto.svg">
  <metadata
     id="metadata12">
    <rdf:RDF>
      <cc:Work
         rdf:about="">
        <dc:format>image/svg+xml</dc:format>
        <dc:type
           rdf:resource="http://purl.org/dc/dcmitype/StillImage" />
      </cc:Work>
    </rdf:RDF>
  </metadata>
  <defs
     id="defs10" />
  <sodipodi:namedview
     pagecolor="#ffffff"
     bordercolor="#666666"
     borderopacity="1"
     objecttolerance="10"
     gridtolerance="10"
     guidetolerance="10"
     inkscape:pageopacity="0"
     inkscape:pageshadow="2"
     inkscape:window-width="1920"
     inkscape:window-height="1021"
     id="namedview8"
     showgrid="false"
     inkscape:zoom="1.6424979"
     inkscape:cx="78.888504"
     inkscape:cy="169.03089"
     inkscape:window-x="-8"
     inkscape:window-y="-8"
     inkscape:window-maximized="1"
     inkscape:current-layer="svg2" />
  <rect
     ry="1.5925778e-017"
     y="220.01056"
     x="49.086014"
     height="83.160583"
     width="254.05194"
     id="rect3003"
     style="fill:#000000;fill-opacity:1;fill-rule:nonzero;stroke:none" />
  <path
     d="M5.079 5.776h336.913v337.67H5.08z"
     stroke-width="2"
     stroke="#000"
     id="path4" />
  <path
     d="M282.734 40.554c0-8.376 6.966-15.165 15.56-15.165 4.126 0 8.084 1.597 11.001 4.441 2.918 2.844 4.558 6.702 4.558 10.724 0 8.376-6.966 15.165-15.56 15.165-8.593 0-15.559-6.79-15.559-15.165z"
     stroke-width="2"
     stroke="#000"
     id="path6" />
  <rect
     style="fill:#000000;fill-opacity:1;fill-rule:nonzero;stroke:none"
     id="rect2989"
     width="287.77539"
     height="93.07708"
     x="30.135992"
     y="98.327614"
     ry="1.7824852e-017" />
  <rect
     style="fill:#ffffff;fill-opacity:1;stroke:#000000;stroke-width:1.29195011;stroke-opacity:1"
     id="rect2991"
     width="53.966427"
     height="72.707336"
     x="55.670326"
     y="225.2724"
     ry="4.701194e-017" />
  <rect
     ry="4.701194e-017"
     y="225.2724"
     x="118.10321"
     height="72.707336"
     width="53.966427"
     id="rect3787"
     style="fill:#ffffff;fill-opacity:1;stroke:#000000;stroke-width:1.29195011;stroke-opacity:1" />
  <rect
     style="fill:#ffffff;fill-opacity:1;stroke:#000000;stroke-width:1.29195011;stroke-opacity:1"
     id="rect3789"
     width="53.966427"
     height="72.707336"
     x="180.5361"
     y="225.2724"
     ry="4.701194e-017" />
  <rect
     ry="4.701194e-017"
     y="225.2724"
     x="242.96899"
     height="72.707336"
     width="53.966427"
     id="rect3791"
     style="fill:#ffffff;fill-opacity:1;stroke:#000000;stroke-width:1.29195011;stroke-opacity:1" />
  <g
     transform="scale(0.86153459,1.1607195)"
     style="font-size:46.7289238px;font-style:normal;font-variant:normal;font-weight:normal;font-stretch:normal;text-align:center;line-height:125%;letter-spacing:0px;word-spacing:0px;writing-mode:lr-tb;text-anchor:middle;fill:#000000;fill-opacity:1;stroke:none;font-family:Arial;-inkscape-font-specification:Arial"
     id="text3795">
    <path
       d="m 81.025121,242.40192 12.845891,-33.44952 4.768723,0 13.690115,33.44952 -5.04253,0 -3.90168,-10.13069 -13.986732,0 -3.673514,10.13069 z m 9.651531,-13.73575 11.339978,0 -3.490979,-9.26365 c -1.064803,-2.81405 -1.855787,-5.12615 -2.372953,-6.93632 -0.42593,2.14481 -1.026773,4.27438 -1.802532,6.38872 z"
       style=""
       id="path3011" />
  </g>
  <g
     transform="scale(0.86153459,1.1607195)"
     style="font-size:46.7289238px;font-style:normal;font-variant:normal;font-weight:normal;font-stretch:normal;text-align:center;line-height:125%;letter-spacing:0px;word-spacing:0px;writing-mode:lr-tb;text-anchor:middle;fill:#000000;fill-opacity:1;stroke:none;font-family:Arial;-inkscape-font-specification:Arial"
     id="text3799">
    <path
       d="m 155.09397,242.40192 12.84589,-33.44952 4.76872,0 13.69012,33.44952 -5.04253,0 -3.90168,-10.13069 -13.98673,0 -3.67352,10.13069 z m 9.65153,-13.73575 11.33998,0 -3.49098,-9.26365 c -1.0648,-2.81405 -1.85579,-5.12615 -2.37295,-6.93632 -0.42593,2.14481 -1.02678,4.27438 -1.80254,6.38872 z"
       style=""
       id="path3020" />
  </g>
  <g
     transform="scale(0.86153459,1.1607195)"
     style="font-size:46.7289238px;font-style:normal;font-variant:normal;font-weight:normal;font-stretch:normal;text-align:center;line-height:125%;letter-spacing:0px;word-spacing:0px;writing-mode:lr-tb;text-anchor:middle;fill:#000000;fill-opacity:1;stroke:none;font-family:Arial;-inkscape-font-specification:Arial"
     id="text3809">
    <path
       d="m 227.21581,242.40192 12.84589,-33.44952 4.76872,0 13.69012,33.44952 -5.04253,0 -3.90168,-10.13069 -13.98673,0 -3.67352,10.13069 z m 9.65153,-13.73575 11.33998,0 -3.49098,-9.26365 c -1.0648,-2.81405 -1.85579,-5.12615 -2.37295,-6.93632 -0.42593,2.14481 -1.02678,4.27438 -1.80254,6.38872 z"
       style=""
       id="path3017" />
  </g>
  <g
     transform="scale(0.86153459,1.1607195)"
     style="font-size:46.7289238px;font-style:normal;font-variant:normal;font-weight:normal;font-stretch:normal;text-align:center;line-height:125%;letter-spacing:0px;word-spacing:0px;writing-mode:lr-tb;text-anchor:middle;fill:#000000;fill-opacity:1;stroke:none;font-family:Arial;-inkscape-font-specification:Arial"
     id="text3813">
    <path
       d="m 299.33764,242.40192 12.84589,-33.44952 4.76872,0 13.69011,33.44952 -5.04252,0 -3.90168,-10.13069 -13.98674,0 -3.67351,10.13069 z m 9.65153,-13.73575 11.33998,0 -3.49098,-9.26365 c -1.06481,-2.81405 -1.85579,-5.12615 -2.37296,-6.93632 -0.42593,2.14481 -1.02677,4.27438 -1.80253,6.38872 z"
       style=""
       id="path3014" />
  </g>
  <g
     style="font-size:56px;font-style:normal;font-variant:normal;font-weight:normal;font-stretch:normal;text-align:center;line-height:125%;letter-spacing:0px;word-spacing:0px;writing-mode:lr-tb;text-anchor:middle;fill:#ffffff;fill-opacity:1;stroke:none;font-family:Arial;-inkscape-font-specification:Arial"
     id="text3817">
    <path
       d="m 73.659256,171.36409 0,-51.21484 10.855469,0 0,4.07421 -5.933594,0 0,43.06641 5.933594,0 0,4.07422 z"
       style="fill:#ffffff;fill-opacity:1"
       id="path3786" />
    <path
       d="m 96.710037,160.23518 -10.636719,-40.08593 5.441407,0 6.097656,26.27734 c 0.656237,2.75262 1.221341,5.48699 1.695312,8.20312 1.020817,-4.28384 1.622377,-6.75389 1.804687,-7.41015 l 7.62891,-27.07031 6.39843,0 5.74219,20.28906 c 1.44007,5.03126 2.47913,9.76173 3.11719,14.1914 0.51038,-2.53384 1.17574,-5.44139 1.99609,-8.72265 l 6.28907,-25.75781 5.33203,0 -10.99219,40.08593 -5.11328,0 -8.44922,-30.54297 c -0.71096,-2.55205 -1.13024,-4.11975 -1.25781,-4.70312 -0.4193,1.84118 -0.81123,3.40889 -1.17578,4.70312 l -8.50391,30.54297 z"
       style="fill:#ffffff;fill-opacity:1"
       id="path3788" />
    <path
       d="m 140.92488,140.71175 c 0,-6.65362 1.78645,-11.8626 5.35938,-15.62696 3.5729,-3.76428 8.18488,-5.64644 13.83593,-5.64648 3.7005,4e-5 7.03643,0.88415 10.00782,2.65234 2.97132,1.76827 5.23629,4.23376 6.79492,7.39649 1.55855,3.16278 2.33785,6.74937 2.33789,10.75976 -4e-5,4.06512 -0.82035,7.70184 -2.46094,10.91016 -1.64066,3.20834 -3.96488,5.63737 -6.97266,7.28711 -3.00784,1.64974 -6.25262,2.47461 -9.73437,2.47461 -3.77346,0 -7.14585,-0.91146 -10.11719,-2.73438 -2.97136,-1.82291 -5.22266,-4.31119 -6.7539,-7.46484 -1.53126,-3.15363 -2.29688,-6.48957 -2.29688,-10.00781 z m 5.46875,0.082 c -1e-5,4.83074 1.29882,8.63608 3.89649,11.41601 2.59764,2.77996 5.8561,4.16993 9.77539,4.16992 3.99216,1e-5 7.27796,-1.40364 9.85742,-4.21093 2.57939,-2.80728 3.8691,-6.79035 3.86914,-11.94922 -4e-5,-3.263 -0.55147,-6.1113 -1.6543,-8.54492 -1.1029,-2.43357 -2.71618,-4.32028 -4.83984,-5.66016 -2.12373,-1.33981 -4.50719,-2.00973 -7.15039,-2.00977 -3.75523,4e-5 -6.98635,1.28975 -9.69336,3.86915 -2.70704,2.57945 -4.06056,6.88609 -4.06055,12.91992 z"
       style="fill:#ffffff;fill-opacity:1"
       id="path3790" />
    <path
       d="m 186.15144,160.23518 0,-40.08593 17.77344,0 c 3.57289,4e-5 6.28904,0.36006 8.14844,1.08007 1.85934,0.72009 3.34502,1.99158 4.45703,3.81446 1.11194,1.82295 1.66793,3.83727 1.66797,6.04297 -4e-5,2.84377 -0.92061,5.24091 -2.76172,7.1914 -1.84118,1.95054 -4.68493,3.19013 -8.53125,3.71875 1.40362,0.6745 2.47002,1.33986 3.19922,1.9961 1.54945,1.42189 3.01689,3.19923 4.40234,5.33203 l 6.97266,10.91015 -6.67188,0 -5.30468,-8.33984 c -1.54951,-2.40624 -2.82555,-4.24738 -3.82813,-5.52344 -1.00263,-1.27602 -1.90041,-2.16925 -2.69336,-2.67969 -0.79299,-0.51039 -1.59963,-0.86586 -2.41992,-1.0664 -0.60158,-0.12759 -1.58595,-0.19139 -2.95313,-0.19141 l -6.15234,0 0,17.80078 z m 5.30469,-22.39453 11.40234,0 c 2.42446,2e-5 4.32029,-0.25063 5.6875,-0.75195 1.36716,-0.50128 2.40623,-1.30336 3.11719,-2.40625 0.71091,-1.10284 1.06638,-2.30141 1.06641,-3.5957 -3e-5,-1.89581 -0.68818,-3.4544 -2.06445,-4.67579 -1.37633,-1.22131 -3.55016,-1.83199 -6.52149,-1.83203 l -12.6875,0 z"
       style="fill:#ffffff;fill-opacity:1"
       id="path3792" />
    <path
       d="m 226.53816,160.23518 0,-40.08593 13.8086,0 c 3.11716,4e-5 5.49607,0.19144 7.13671,0.57421 2.29685,0.52869 4.25649,1.48572 5.87891,2.8711 2.11455,1.78649 3.69593,4.06969 4.74414,6.84961 1.04814,2.77997 1.57223,5.9564 1.57227,9.52929 -4e-5,3.04429 -0.35551,5.74221 -1.06641,8.09375 -0.71097,2.35158 -1.62243,4.29754 -2.73437,5.8379 -1.11202,1.54036 -2.32881,2.7526 -3.65039,3.63671 -1.32165,0.88412 -2.9167,1.55404 -4.78516,2.00977 -1.86851,0.45573 -4.015,0.68359 -6.43945,0.68359 z m 5.30469,-4.73047 8.55859,0 c 2.64321,1e-5 4.71678,-0.24608 6.22071,-0.73828 1.50388,-0.49218 2.70244,-1.18489 3.5957,-2.07812 1.25778,-1.2578 2.2376,-2.94856 2.93945,-5.07227 0.70179,-2.12368 1.05271,-4.69855 1.05274,-7.72461 -3e-5,-4.19268 -0.68819,-7.41468 -2.06446,-9.66601 -1.37633,-2.25127 -3.04885,-3.75973 -5.01757,-4.52539 -1.4219,-0.54684 -3.70966,-0.82028 -6.86329,-0.82032 l -8.42187,0 z"
       style="fill:#ffffff;fill-opacity:1"
       id="path3794" />
    <path
       d="m 274.60847,171.36409 -10.85546,0 0,-4.07422 5.93359,0 0,-43.06641 -5.93359,0 0,-4.07421 10.85546,0 z"
       style="fill:#ffffff;fill-opacity:1"
       id="path3796" />
  </g>
  <rect
     style="fill:#ffffff;fill-opacity:1;fill-rule:nonzero;stroke:#000000;stroke-width:1;stroke-miterlimit:4;stroke-opacity:1;stroke-dasharray:none"
     id="rect3773"
     width="21.917837"
     height="21.917837"
     x="36.532791"
     y="39.932625"
     ry="1.7824852e-017" />
  <rect
     ry="1.7824852e-017"
     y="39.932625"
     x="196.53279"
     height="21.917837"
     width="21.917837"
     id="rect3775"
     style="fill:#ffffff;fill-opacity:1;fill-rule:nonzero;stroke:#000000;stroke-width:1;stroke-miterlimit:4;stroke-opacity:1;stroke-dasharray:none" />
  <rect
     style="fill:#ffffff;fill-opacity:1;fill-rule:nonzero;stroke:#000000;stroke-width:1;stroke-miterlimit:4;stroke-opacity:1;stroke-dasharray:none"
     id="rect3777"
     width="21.917837"
     height="21.917837"
     x="164.53279"
     y="39.932625"
     ry="1.7824852e-017" />
  <rect
     ry="1.7824852e-017"
     y="39.932625"
     x="132.53279"
     height="21.917837"
     width="21.917837"
     id="rect3779"
     style="fill:#ffffff;fill-opacity:1;fill-rule:nonzero;stroke:#000000;stroke-width:1;stroke-miterlimit:4;stroke-opacity:1;stroke-dasharray:none" />
  <rect
     style="fill:#ffffff;fill-opacity:1;fill-rule:nonzero;stroke:#000000;stroke-width:1;stroke-miterlimit:4;stroke-opacity:1;stroke-dasharray:none"
     id="rect3781"
     width="21.917837"
     height="21.917837"
     x="100.53279"
     y="39.932625"
     ry="1.7824852e-017" />
  <rect
     ry="1.7824852e-017"
     y="39.932625"
     x="68.532791"
     height="21.917837"
     width="21.917837"
     id="rect3783"
     style="fill:#ffffff;fill-opacity:1;fill-rule:nonzero;stroke:#000000;stroke-width:1;stroke-miterlimit:4;stroke-opacity:1;stroke-dasharray:none" />
</svg>
